<svg xmlns="http://www.w3.org/2000/svg" xmlns:xlink="http://www.w3.org/1999/xlink" version="1.1" x="0px" y="0px" viewBox="0 0 100 125" style="enable-background:new 0 0 100 100;" xml:space="preserve"><g><path d="M7.728,52.994L8.807,70.14c0.073,1.356,1.195,2.418,2.554,2.418h0.227v2.408c0,0.829,0.672,1.5,1.5,1.5s1.5-0.671,1.5-1.5   v-2.408h11.048v2.408c0,0.829,0.672,1.5,1.5,1.5s1.5-0.671,1.5-1.5v-2.408h0.227c1.356,0,2.478-1.061,2.553-2.405l1.079-17.159   c1.55-0.291,2.729-1.649,2.729-3.282v-1.375c0-1.75-1.35-3.189-3.063-3.333l-11.566-3.932c-0.313-0.106-0.652-0.106-0.965,0   L8.062,45.003C6.35,45.147,5,46.587,5,48.337v1.375C5,51.345,6.178,52.703,7.728,52.994z M8,48.337c0-0.19,0.154-0.345,0.345-0.345   c0.164,0,0.327-0.027,0.482-0.08l11.283-3.836l11.283,3.836c0.155,0.053,0.318,0.08,0.482,0.08c0.19,0,0.346,0.155,0.346,0.345   v1.375c0,0.19-0.155,0.345-0.346,0.345h-3.003c-0.828,0-1.5,0.671-1.5,1.5s0.672,1.5,1.5,1.5h0.61l-1.037,16.502H11.776   l-1.038-16.502h12.729c0.828,0,1.5-0.671,1.5-1.5s-0.672-1.5-1.5-1.5H8.345C8.154,50.056,8,49.901,8,49.711V48.337z"/><path d="M61.304,50.262l1.079-17.159c1.55-0.291,2.728-1.649,2.728-3.283v-1.374c0-1.75-1.35-3.189-3.063-3.333L50.476,21.18   c-0.313-0.106-0.651-0.106-0.966,0l-11.559,3.932c-1.712,0.145-3.062,1.584-3.062,3.333v1.374c0,1.634,1.178,2.992,2.728,3.283   l1.078,17.149c0.076,1.354,1.198,2.416,2.555,2.416h0.226v2.408c0,0.829,0.672,1.5,1.5,1.5s1.5-0.671,1.5-1.5v-2.408h11.049v2.408   c0,0.829,0.672,1.5,1.5,1.5s1.5-0.671,1.5-1.5v-2.408h0.226C60.106,52.667,61.229,51.606,61.304,50.262z M58.335,49.667h-16.67   l-1.037-16.502h2.791c0.828,0,1.5-0.671,1.5-1.5s-0.672-1.5-1.5-1.5h-5.185c-0.19,0-0.345-0.155-0.345-0.345v-1.374   c0-0.19,0.154-0.345,0.345-0.345c0.164,0,0.327-0.027,0.483-0.08l11.275-3.835l11.29,3.836c0.155,0.053,0.318,0.08,0.482,0.08   c0.19,0,0.345,0.155,0.345,0.345v1.374c0,0.19-0.154,0.345-0.345,0.345H48.439c-0.828,0-1.5,0.671-1.5,1.5s0.672,1.5,1.5,1.5   h10.933L58.335,49.667z"/><path d="M91.938,45.003l-11.566-3.932c-0.313-0.106-0.652-0.106-0.965,0l-11.566,3.932c-1.713,0.144-3.063,1.584-3.063,3.333v1.375   c0,1.633,1.179,2.992,2.729,3.282l1.078,17.149c0.076,1.354,1.197,2.416,2.554,2.416h0.227v2.408c0,0.829,0.672,1.5,1.5,1.5   s1.5-0.671,1.5-1.5v-2.408h11.048v2.408c0,0.829,0.672,1.5,1.5,1.5s1.5-0.671,1.5-1.5v-2.408h0.227c1.358,0,2.48-1.062,2.553-2.405   l1.08-17.159C93.822,52.703,95,51.345,95,49.711v-1.375C95,46.587,93.65,45.147,91.938,45.003z M88.224,69.558H71.555   l-1.037-16.502h12.635c0.828,0,1.5-0.671,1.5-1.5s-0.672-1.5-1.5-1.5H68.124c-0.19,0-0.346-0.155-0.346-0.345v-1.375   c0-0.19,0.155-0.345,0.346-0.345c0.164,0,0.327-0.027,0.482-0.08l11.283-3.836l11.283,3.836c0.155,0.053,0.318,0.08,0.482,0.08   c0.19,0,0.345,0.155,0.345,0.345v1.375c0,0.19-0.154,0.345-0.345,0.345h-3.696c-0.828,0-1.5,0.671-1.5,1.5s0.672,1.5,1.5,1.5h1.303   L88.224,69.558z"/><path d="M12.777,30.873l0.401,0.401c0.776,0.777,1.797,1.166,2.817,1.166s2.042-0.389,2.818-1.166l0.468-0.468   c0.861,0.484,1.818,0.744,2.783,0.744c1.456,0,2.913-0.55,4.009-1.646c1.839-1.839,2.123-4.629,0.9-6.79l0.269-0.269   c1.664-1.664,1.664-4.372,0-6.036c-0.806-0.806-1.878-1.25-3.018-1.25c-1.141,0-2.213,0.444-3.019,1.25l-0.439,0.439   c-1.58-0.624-3.376-0.494-4.875,0.355l-1.604-1.605c-0.586-0.586-1.535-0.586-2.121,0c-0.586,0.585-0.586,1.535,0,2.121   l1.604,1.605c-0.849,1.499-0.98,3.295-0.355,4.875l-0.639,0.639C11.225,26.792,11.225,29.32,12.777,30.873z M25.122,18.931   c0.494,0.495,0.494,1.299,0,1.794l-0.108,0.108l-1.794-1.794l0.108-0.108C23.806,18.452,24.643,18.451,25.122,18.931z    M20.563,20.624l3.391,3.391c1.038,1.039,1.038,2.73,0,3.769c-1.014,1.015-2.684,1.037-3.721,0.047   c-0.009-0.008-0.021-0.011-0.03-0.019c-0.008-0.009-0.011-0.02-0.019-0.029c-0.586-0.585-1.535-0.585-2.121,0l-1.369,1.37   c-0.384,0.384-1.009,0.385-1.393,0l-0.401-0.401c-0.384-0.384-0.384-1.009,0-1.393l0.309-0.309l0.026,0.026   c0.586,0.586,1.535,0.586,2.121,0c0.586-0.585,0.586-1.536,0-2.121l-0.563-0.563c-1.038-1.039-1.038-2.73,0-3.769   C17.832,19.585,19.523,19.586,20.563,20.624z"/><path d="M59.193,68.115c-0.586-0.586-1.535-0.586-2.121,0l-1.604,1.603c-0.843-0.48-1.789-0.758-2.786-0.758   c-0.728,0-1.433,0.144-2.09,0.404l-0.639-0.639c-0.753-0.753-1.753-1.168-2.818-1.168c-1.064,0-2.064,0.415-2.816,1.167   l-0.403,0.402c-1.552,1.553-1.552,4.081,0.001,5.635l0.468,0.468c-1.215,2.161-0.92,4.97,0.902,6.792   c1.069,1.07,2.492,1.659,4.006,1.659c0.996,0,1.942-0.278,2.785-0.758l0.268,0.268c0.806,0.806,1.878,1.25,3.019,1.25   c1.14,0,2.212-0.444,3.018-1.25c1.664-1.664,1.664-4.372,0-6.036l-0.439-0.439c0.261-0.657,0.404-1.362,0.404-2.091   c0-0.996-0.278-1.942-0.758-2.785l1.604-1.603C59.779,69.651,59.779,68.701,59.193,68.115z M47.408,79.9   c-1.014-1.014-1.035-2.684-0.047-3.721c0.008-0.009,0.01-0.02,0.018-0.029c0.009-0.008,0.02-0.011,0.029-0.019   c0.586-0.586,0.586-1.536,0-2.122l-1.369-1.369c-0.384-0.384-0.384-1.01-0.002-1.393l0.402-0.402c0.373-0.372,1.02-0.373,1.393,0   l0.309,0.309l-0.138,0.138c-0.586,0.585-0.586,1.536,0,2.121c0.586,0.586,1.535,0.586,2.121,0l0.675-0.674   c1.007-1.008,2.764-1.007,3.769,0c0.504,0.503,0.78,1.172,0.78,1.884c0,0.712-0.276,1.381-0.78,1.885L51.177,79.9   C50.169,80.908,48.412,80.906,47.408,79.9z M56.261,81.069c-0.479,0.479-1.316,0.478-1.794,0l-0.108-0.108l1.794-1.794l0.108,0.108   C56.755,79.77,56.755,80.575,56.261,81.069z"/><path d="M76.54,15.56c-1.14,0-2.212,0.444-3.018,1.25c-1.664,1.664-1.664,4.372,0,6.036l0.439,0.439   c-0.261,0.657-0.404,1.362-0.404,2.091c0,0.996,0.278,1.942,0.758,2.785l-1.604,1.603c-0.586,0.585-0.586,1.535,0,2.121   c0.293,0.293,0.677,0.439,1.061,0.439s0.768-0.146,1.061-0.439l1.604-1.603c0.843,0.48,1.789,0.758,2.786,0.758   c0.728,0,1.432-0.144,2.089-0.404l0.639,0.639c0.753,0.753,1.753,1.168,2.818,1.168c1.064,0,2.064-0.415,2.816-1.167l0.403-0.402   c1.552-1.553,1.552-4.081-0.001-5.635l-0.468-0.468c1.215-2.161,0.92-4.97-0.902-6.792c-1.069-1.07-2.492-1.659-4.006-1.659   c-0.996,0-1.942,0.278-2.785,0.758l-0.268-0.268C78.753,16.003,77.681,15.56,76.54,15.56z M75.644,18.931   c0.239-0.239,0.559-0.371,0.896-0.371c0.339,0,0.658,0.132,0.897,0.371l0.108,0.108l-1.794,1.794l-0.108-0.108   C75.149,20.23,75.149,19.425,75.644,18.931z M84.496,20.1c1.014,1.014,1.035,2.684,0.047,3.721c-0.008,0.009-0.01,0.02-0.018,0.029   c-0.009,0.008-0.02,0.011-0.029,0.019c-0.586,0.586-0.586,1.536,0,2.122l1.369,1.369c0.384,0.384,0.384,1.01,0.002,1.393   l-0.402,0.402c-0.373,0.372-1.02,0.373-1.393,0l-0.309-0.309l0.228-0.227c0.586-0.585,0.586-1.535,0.001-2.121   c-0.586-0.587-1.536-0.587-2.122-0.001l-0.765,0.765c-1.008,1.007-2.764,1.006-3.769,0c-0.504-0.503-0.78-1.172-0.78-1.884   c0-0.712,0.276-1.381,0.78-1.885l3.391-3.391C81.734,19.092,83.491,19.093,84.496,20.1z"/><path d="M20.11,56.158c-2.839,0-5.148,2.31-5.148,5.149s2.31,5.149,5.148,5.149c2.84,0,5.149-2.31,5.149-5.149   S22.95,56.158,20.11,56.158z M20.11,63.457c-1.185,0-2.148-0.964-2.148-2.149s0.964-2.149,2.148-2.149   c1.186,0,2.149,0.964,2.149,2.149S21.296,63.457,20.11,63.457z"/><path d="M49.993,36.267c-2.84,0-5.149,2.31-5.149,5.149s2.31,5.149,5.149,5.149s5.149-2.31,5.149-5.149   S52.833,36.267,49.993,36.267z M49.993,43.565c-1.186,0-2.149-0.964-2.149-2.149s0.964-2.149,2.149-2.149s2.149,0.964,2.149,2.149   S51.179,43.565,49.993,43.565z"/><path d="M79.89,56.158c-2.84,0-5.149,2.31-5.149,5.149s2.31,5.149,5.149,5.149c2.839,0,5.148-2.31,5.148-5.149   S82.729,56.158,79.89,56.158z M79.89,63.457c-1.186,0-2.149-0.964-2.149-2.149s0.964-2.149,2.149-2.149   c1.185,0,2.148,0.964,2.148,2.149S81.074,63.457,79.89,63.457z"/></g></svg>
