<svg xmlns="http://www.w3.org/2000/svg" xmlns:xlink="http://www.w3.org/1999/xlink" version="1.1" x="0px" y="0px" viewBox="0 0 100 125" style="enable-background:new 0 0 100 100;" xml:space="preserve"><path d="M8.41,45.58C8.79,45.95,9,46.47,9,47c0,0.13-0.01,0.26-0.04,0.39c-0.03,0.13-0.06,0.26-0.11,0.38  C8.8,47.89,8.73,48,8.66,48.11c-0.07,0.11-0.15,0.21-0.25,0.3C8.04,48.79,7.53,49,7,49c-0.13,0-0.26-0.01-0.39-0.04  c-0.13-0.02-0.25-0.06-0.37-0.11C6.11,48.8,6,48.73,5.89,48.66c-0.11-0.07-0.21-0.15-0.3-0.25c-0.1-0.09-0.18-0.19-0.25-0.3  s-0.14-0.22-0.19-0.34c-0.05-0.12-0.09-0.25-0.11-0.38C5.01,47.26,5,47.13,5,47c0-0.53,0.21-1.04,0.59-1.42  c0.09-0.09,0.19-0.17,0.3-0.24C6,45.27,6.11,45.2,6.24,45.15c0.12-0.05,0.24-0.08,0.37-0.11c0.26-0.05,0.52-0.05,0.78,0  c0.13,0.03,0.25,0.06,0.37,0.11C7.89,45.2,8,45.27,8.11,45.34S8.32,45.49,8.41,45.58z M94.85,59.23c-0.05-0.12-0.12-0.23-0.19-0.34  c-0.07-0.11-0.15-0.21-0.25-0.3c-0.74-0.75-2.08-0.75-2.82,0c-0.1,0.09-0.18,0.19-0.25,0.3c-0.07,0.11-0.14,0.22-0.19,0.34  c-0.05,0.13-0.09,0.25-0.11,0.38C91.01,59.74,91,59.87,91,60c0,0.53,0.21,1.04,0.59,1.41c0.09,0.1,0.19,0.18,0.3,0.25  c0.11,0.08,0.22,0.14,0.34,0.19s0.25,0.09,0.38,0.11C92.73,61.99,92.87,62,93,62c0.53,0,1.03-0.21,1.41-0.59  C94.79,61.04,95,60.53,95,60c0-0.13-0.01-0.26-0.04-0.39C94.94,59.48,94.9,59.36,94.85,59.23z M94.85,27.23  c-0.05-0.12-0.12-0.23-0.19-0.34c-0.07-0.11-0.15-0.21-0.25-0.3c-0.46-0.47-1.15-0.68-1.8-0.55c-0.13,0.03-0.26,0.06-0.38,0.11  c-0.12,0.05-0.23,0.12-0.34,0.19c-0.11,0.07-0.21,0.15-0.3,0.25C91.21,26.96,91,27.47,91,28c0,0.13,0.01,0.26,0.04,0.39  c0.02,0.13,0.06,0.25,0.11,0.38c0.05,0.12,0.12,0.23,0.19,0.34s0.15,0.21,0.25,0.3C91.96,29.79,92.47,30,93,30  c0.52,0,1.04-0.21,1.41-0.59c0.1-0.09,0.18-0.19,0.25-0.3c0.07-0.11,0.14-0.22,0.19-0.34c0.05-0.13,0.09-0.25,0.11-0.38  C94.99,28.26,95,28.13,95,28c0-0.13-0.01-0.26-0.04-0.39C94.94,27.48,94.9,27.35,94.85,27.23z M91.15,18.77  c0.05,0.12,0.12,0.23,0.19,0.34s0.15,0.21,0.25,0.3C91.96,19.79,92.47,20,93,20c0.52,0,1.04-0.21,1.41-0.59  c0.1-0.09,0.18-0.19,0.25-0.3c0.07-0.11,0.14-0.22,0.19-0.34c0.05-0.13,0.09-0.25,0.11-0.38C94.99,18.26,95,18.13,95,18  c0-0.13-0.01-0.26-0.04-0.39c-0.02-0.13-0.06-0.26-0.11-0.38c-0.05-0.12-0.12-0.23-0.19-0.34c-0.07-0.11-0.15-0.21-0.25-0.3  c-0.46-0.47-1.15-0.68-1.8-0.55c-0.13,0.03-0.26,0.06-0.38,0.11c-0.12,0.05-0.23,0.12-0.34,0.19c-0.11,0.07-0.21,0.15-0.3,0.25  C91.21,16.96,91,17.47,91,18c0,0.13,0.01,0.26,0.04,0.39C91.06,18.52,91.1,18.64,91.15,18.77z M35,40V28c0-1.1,0.9-2,2-2h26  c1.1,0,2,0.9,2,2v12c0,1.1-0.9,2-2,2H37C35.9,42,35,41.1,35,40z M39,38h22v-8H39V38z M65,60v12c0,1.1-0.9,2-2,2H37c-1.1,0-2-0.9-2-2  V60c0-1.1,0.9-2,2-2h26C64.1,58,65,58.9,65,60z M61,62H39v8h22V62z M28.85,59.23c-0.05-0.12-0.11-0.23-0.19-0.34  c-0.07-0.11-0.15-0.21-0.24-0.3c-0.1-0.1-0.2-0.18-0.31-0.25s-0.22-0.14-0.34-0.19c-0.13-0.05-0.25-0.09-0.38-0.11  c-0.65-0.14-1.34,0.08-1.8,0.55c-0.1,0.09-0.18,0.19-0.25,0.3c-0.07,0.11-0.14,0.22-0.19,0.34c-0.05,0.13-0.09,0.25-0.11,0.38  C25.01,59.74,25,59.87,25,60c0,0.53,0.21,1.04,0.59,1.41C25.96,61.79,26.47,62,27,62c0.53,0,1.04-0.21,1.42-0.59  C28.79,61.04,29,60.53,29,60c0-0.13-0.01-0.26-0.04-0.39C28.94,59.48,28.9,59.36,28.85,59.23z M71.89,29.66  c0.11,0.08,0.22,0.14,0.34,0.19c0.12,0.05,0.25,0.09,0.38,0.11C72.74,29.99,72.87,30,73,30s0.26-0.01,0.39-0.04  c0.13-0.02,0.25-0.06,0.37-0.11c0.13-0.05,0.24-0.11,0.35-0.19c0.11-0.07,0.21-0.15,0.3-0.24C74.79,29.04,75,28.53,75,28  c0-0.13-0.01-0.26-0.04-0.39c-0.02-0.13-0.06-0.25-0.11-0.38c-0.05-0.12-0.12-0.23-0.19-0.34c-0.07-0.11-0.15-0.21-0.25-0.3  c-0.09-0.1-0.19-0.18-0.3-0.25c-0.11-0.07-0.22-0.14-0.35-0.19c-0.12-0.05-0.24-0.09-0.37-0.11c-0.26-0.05-0.52-0.05-0.78,0  c-0.13,0.02-0.26,0.06-0.38,0.11c-0.12,0.05-0.23,0.12-0.34,0.19c-0.11,0.07-0.21,0.15-0.3,0.25c-0.1,0.09-0.18,0.19-0.25,0.3  c-0.08,0.11-0.14,0.22-0.19,0.34c-0.05,0.13-0.09,0.25-0.11,0.38C71.01,27.74,71,27.87,71,28c0,0.53,0.21,1.04,0.59,1.42  C71.68,29.51,71.78,29.59,71.89,29.66z M74.85,71.23c-0.05-0.12-0.12-0.23-0.19-0.34c-0.07-0.11-0.15-0.21-0.25-0.3  c-0.09-0.1-0.19-0.18-0.3-0.25c-0.11-0.07-0.22-0.14-0.35-0.19c-0.12-0.05-0.24-0.09-0.37-0.11c-0.26-0.05-0.52-0.05-0.78,0  c-0.13,0.02-0.26,0.06-0.38,0.11c-0.12,0.05-0.23,0.12-0.34,0.19c-0.11,0.07-0.21,0.15-0.3,0.25c-0.1,0.09-0.18,0.19-0.25,0.3  c-0.08,0.11-0.14,0.22-0.19,0.34c-0.05,0.12-0.09,0.25-0.11,0.38C71.01,71.74,71,71.87,71,72s0.01,0.26,0.04,0.39  c0.02,0.13,0.06,0.26,0.11,0.38c0.05,0.12,0.11,0.23,0.18,0.34c0.08,0.11,0.16,0.21,0.26,0.3C71.96,73.79,72.47,74,73,74  c0.27,0,0.52-0.05,0.77-0.15c0.24-0.1,0.46-0.25,0.64-0.44c0.1-0.09,0.18-0.19,0.25-0.3c0.08-0.11,0.14-0.22,0.19-0.34  s0.09-0.25,0.11-0.38C74.99,72.26,75,72.13,75,72s-0.01-0.26-0.04-0.39C74.94,71.48,74.9,71.35,74.85,71.23z M84.98,17.77  C84.99,17.84,85,17.92,85,18v64v10c0,1.1-0.9,2-2,2H73c-1.1,0-2-0.9-2-2v-8H29v8c0,1.1-0.9,2-2,2H17c-1.1,0-2-0.9-2-2V82V18  c0-0.08,0.01-0.15,0.02-0.23c0-0.04,0-0.08,0.01-0.12c0.03-0.17,0.08-0.33,0.15-0.48c0.01-0.03,0.03-0.06,0.05-0.09  c0.07-0.13,0.15-0.25,0.24-0.36c0.02-0.02,0.02-0.04,0.04-0.06l9-10C24.89,6.24,25.43,6,26,6h48c0.57,0,1.11,0.24,1.49,0.66l9,10  c0.02,0.02,0.02,0.04,0.04,0.06c0.1,0.11,0.18,0.24,0.25,0.37c0.01,0.03,0.03,0.05,0.05,0.08c0.07,0.15,0.12,0.31,0.15,0.48  C84.97,17.69,84.97,17.73,84.98,17.77z M73,80h8V52H19v28h8H73z M81,20H19v28h62V20z M21.49,16h57.02l-5.4-6H26.89L21.49,16z M25,84  h-6v6h6V84z M81,84h-6v6h6V84z"/></svg>
