<svg xmlns="http://www.w3.org/2000/svg" xmlns:xlink="http://www.w3.org/1999/xlink" version="1.1" x="0px" y="0px" viewBox="0 0 1024 1280" style="enable-background:new 0 0 1024 1024;" xml:space="preserve"><g><g><g><g><g><g><path d="M861.7,382.6c-25.9,25.9-51.8,51.8-77.7,77.7c-20.3,20.3-40.7,40.7-61,61        c-38.9,38.9-77.7,77.7-116.6,116.6c-31.4,31.4-62.7,62.7-94.1,94.1c-3.5,3.5-7,7-10.5,10.5c-0.8,0.8-1.7,1.7-2.5,2.5        c-0.1,0.2-0.3,0.3-0.5,0.5c0,0,0,0-0.1,0.1c2.5-3.2,5.1-3.6,3.2-2.6c7.2-4,5-1.8,3.3-1.4c-1.8,0.4-3.6,0.8-5.5,1.2        c-4.3,0.8,5.8-0.6,1.1-0.2c-1.6,0.2-3.2,0.3-4.8,0.5c-7,0.6-14.1,1-21.1,1.2c-12.8,0.5-25.6,0.7-38.4,0.7c-2.2,0-4.4,0-6.6,0        c6.7,6.7,13.3,13.3,20,20c-0.1-11.6,0-23.2,0.2-34.8c0.2-9.2,0.5-18.3,1.1-27.5c0.1-2.1,0.3-4.2,0.5-6.3c0.1-1,0.8-6.7,0.3-3        c-0.5,3.7,0.3-1.3,0.5-2.2c0.6-2.7,1.5-5.3,1.5-8.2c-0.9,3.4-1.8,6.7-2.7,10.1c-2.7,4.5-2.6,3-0.7,1.2c1.5-1.5,3-3,4.5-4.5        c5.3-5.3,10.6-10.6,16-16c16.3-16.3,32.5-32.5,48.8-48.8c24.1-24.1,48.2-48.2,72.2-72.2C617,527.9,642,503,666.9,478        c18.5-18.5,37.1-37.1,55.6-55.6c29.1-29.1,58.3-58.3,87.4-87.4c0.7-0.7,1.4-1.4,2.1-2.1c-9.4,0-18.9,0-28.3,0        c22.7,22.7,45.4,45.4,68,68c3.3,3.3,6.6,6.6,9.9,9.9c7.4,7.4,21,8,28.3,0c7.3-8,7.9-20.4,0-28.3        c-22.8-22.8-45.7-45.7-68.5-68.5c-3.2-3.2-6.3-6.3-9.5-9.5c-7.6-7.6-20.6-7.7-28.3,0c-29.1,29.1-58.1,58.1-87.2,87.2        c-21.4,21.4-42.8,42.8-64.1,64.1c-23.8,23.8-47.7,47.7-71.5,71.5c-31.6,31.6-63.3,63.3-94.9,94.9        c-13.6,13.6-27.2,27.2-40.9,40.9c-1.3,1.3-2.6,2.5-3.8,3.8c-0.2,0.2-0.4,0.4-0.6,0.6c-2.6,2.9-4.9,6.3-5.9,10.1        c-0.2,1.8-0.5,3.5-0.7,5.3c0.6-4.5,0.7-5.7,0.2-3.7c-0.5,1.4-0.7,3-0.9,4.4c-3.6,21.7-3.3,44.2-3.4,66.2c0,5,0,10.1,0,15.1        c0.1,10.8,9.1,20,20,20c22.3,0.1,44.7,0,66.9-2c10.7-1,22.1-1.6,30.3-9.4c2.1-2,4.1-4.1,6.1-6.1        c28.1-28.1,56.3-56.3,84.4-84.4c39.8-39.8,79.6-79.6,119.4-119.4c24.4-24.4,48.8-48.8,73.2-73.2        c25.4-25.4,50.7-50.7,76.1-76.1c1.1-1.1,2.3-2.3,3.4-3.4c7.4-7.4,8-21,0-28.3C882,375.3,869.6,374.7,861.7,382.6z"/></g></g><g><g><path d="M937,307.3c-21.9,21.9-43.9,43.9-65.8,65.8c-3.2,3.2-6.3,6.3-9.5,9.5c9.4,0,18.9,0,28.3,0        c-22.8-22.8-45.7-45.7-68.5-68.5c-3.2-3.2-6.3-6.3-9.5-9.5c0,9.4,0,18.9,0,28.3c23.4-23.4,46.8-46.8,70.1-70.1        c1.5-1.5,3.6-3,4.8-4.8c0,0,0.3-0.3,0.3-0.3c0,0,0,0,0,0c-2.2,1.5-2.4,1.7-0.6,0.6c-0.7,0.3-1.5,0.6-2.2,1        c0.5-0.2,1-0.2,1.5-0.4c-1.3,0.5-2.6,0.6-3.8,0.3c-1.6-0.3-1.5-0.2,0.4,0.2c-0.1,0-4.2-1.9-1.8-0.6c3.1,1.7,6.5,2.7,10.1,2.7        c-3.4-0.9-6.7-1.8-10.1-2.7c1.5,1,3.1,3.1-1.5-1.1c-2-4.7-3.9-9.4-5.9-14.1c0,8.8,5.6,13.9,11.2,19.4        c5.2,5.2,10.4,10.4,15.5,15.5c11,11,22,22,32.9,32.9c1.1,1.1,2.3,2.9,3.7,3.7c0,0,0.2,0.2,0.2,0.2c0,0-1.3-1.9-1.4-1.9        c1.4,2.2,0.1-0.2-0.3-1.2c0.2,0.7,0.5,2.8,0.2-0.1c-0.2-1.6-0.2-1.8-0.2-0.7c0,1.6,0.1,0.9,0.4-2.1c-0.4,1.8-0.9,0.6,0.1,0.1        c0.6-1.4,0.7-1.6,0.1-0.6C935.2,309.9,935.5,309.5,937,307.3c-7,7.7-8.2,20.7,0,28.3c7.7,7,20.8,8.3,28.3,0        c13.1-14.4,13.1-34.8-0.3-48.9c-3.4-3.6-7-7-10.4-10.4c-12.3-12.3-24.6-24.6-36.9-36.9c-3.3-3.3-6.6-6.6-10-10        c2,4.7,3.9,9.4,5.9,14.1c0-11.4-11.2-22-22.6-22c3.4,0.9,6.7,1.8,10.1,2.7c-15.1-8.9-32.1-4.6-43.9,7.2        c-5.3,5.3-10.6,10.6-15.9,15.9c-15.4,15.4-30.8,30.8-46.2,46.2c-3.7,3.7-7.5,7.5-11.2,11.2c-7.6,7.6-7.7,20.6,0,28.3        c22.7,22.7,45.4,45.4,68,68c3.3,3.3,6.6,6.6,9.9,9.9c7.6,7.6,20.6,7.7,28.3,0c21.9-21.9,43.9-43.9,65.8-65.8        c3.2-3.2,6.3-6.3,9.5-9.5c7.4-7.4,8-21,0-28.3C957.3,300,944.9,299.4,937,307.3z"/></g></g><g><g><path d="M937,307.3c-21.9,21.9-43.9,43.9-65.8,65.8c-3.2,3.2-6.3,6.3-9.5,9.5c9.4,0,18.9,0,28.3,0        c-22.8-22.8-45.7-45.7-68.5-68.5c-3.2-3.2-6.3-6.3-9.5-9.5c0,9.4,0,18.9,0,28.3c23.4-23.4,46.8-46.8,70.1-70.1        c1.5-1.5,3.6-3,4.8-4.8c0,0,0.3-0.3,0.3-0.3c0,0,0,0,0,0c-2.2,1.5-2.4,1.7-0.6,0.6c-0.7,0.3-1.5,0.6-2.2,1        c0.5-0.2,1-0.2,1.5-0.4c-1.3,0.5-2.6,0.6-3.8,0.3c-1.6-0.3-1.5-0.2,0.4,0.2c-0.1,0-4.2-1.9-1.8-0.6c3.1,1.7,6.5,2.7,10.1,2.7        c-3.4-0.9-6.7-1.8-10.1-2.7c3.2,2.1-1.2-0.7-1.3-0.9c0.3,0.4,0.7,0.7,1.1,1.1c1.4,1.5,2.9,2.9,4.3,4.3        c5.2,5.2,10.4,10.4,15.7,15.7c10.9,10.9,21.7,21.7,32.6,32.6c1.1,1.1,2.3,2.9,3.7,3.7c0,0,0.2,0.2,0.2,0.2        c0,0-1.4-1.9-1.4-1.9c1.4,2.2,0.1-0.2-0.3-1.2c0.2,0.7,0.5,2.8,0.2-0.1c-0.2-1.6-0.2-1.8-0.2-0.7c0,1.6,0.1,0.9,0.4-2.1        c-0.4,1.8-0.9,0.6,0.1,0.1c0.6-1.4,0.7-1.6,0.1-0.6C935.2,309.9,935.5,309.5,937,307.3c-7,7.7-8.2,20.7,0,28.3        c7.7,7,20.8,8.3,28.3,0c13.1-14.4,13.1-35.1-0.5-49.1c-3.9-4.1-8-8-12-12c-12.8-12.8-25.7-25.7-38.5-38.5        c-6.6-6.6-13.2-14.5-23.4-14.5c3.4,0.9,6.7,1.8,10.1,2.7c-15.1-8.9-32.1-4.6-43.9,7.2c-5.3,5.3-10.6,10.6-15.9,15.9        c-15.4,15.4-30.8,30.8-46.2,46.2c-3.7,3.7-7.5,7.5-11.2,11.2c-7.6,7.6-7.7,20.6,0,28.3c22.7,22.7,45.4,45.4,68,68        c3.3,3.3,6.6,6.6,9.9,9.9c7.6,7.6,20.6,7.7,28.3,0c21.9-21.9,43.9-43.9,65.8-65.8c3.2-3.2,6.3-6.3,9.5-9.5        c7.4-7.4,8-21,0-28.3C957.3,300,944.9,299.4,937,307.3z"/></g></g><g><g><path d="M414.8,677.8c-0.1,0.3-0.2,0.7-0.4,1c-0.8,2.7-1,5.3-0.4,8c0.1,2.7,0.9,5.1,2.4,7.4        c1.3,2.3,3,4.2,5.2,5.6c1.9,1.8,4.2,3,6.8,3.6c1.8,0.2,3.5,0.5,5.3,0.7c3.6,0,7-0.9,10.1-2.7c1.3-1,2.7-2.1,4-3.1        c2.5-2.5,4.2-5.4,5.1-8.8c0.1-0.3,0.2-0.7,0.4-1c0.8-2.7,1-5.3,0.4-8c-0.1-2.7-0.9-5.1-2.4-7.4c-1.3-2.3-3-4.2-5.2-5.6        c-1.9-1.8-4.2-3-6.8-3.6c-1.8-0.2-3.5-0.5-5.3-0.7c-3.6,0-7,0.9-10.1,2.7c-1.3,1-2.7,2.1-4,3.1        C417.5,671.4,415.8,674.4,414.8,677.8L414.8,677.8z"/></g></g><g><g><path d="M451.4,693.2c0.2-0.4,0.4-0.8,0.6-1.1c-1,1.3-2.1,2.7-3.1,4c0.1-0.1,0.1-0.1,0.2-0.2        c-9.4,0-18.9,0-28.3,0c0,0,0,0,0,0c1.8,2,4,3.3,6.4,4.1c2.4,1.3,5,1.8,7.7,1.7c2.8,0.1,5.3-0.5,7.7-1.7        c2.5-0.8,4.6-2.2,6.4-4.1c1-1.3,2.1-2.7,3.1-4c1.8-3.1,2.7-6.5,2.7-10.1c-0.2-1.8-0.5-3.5-0.7-5.3c-1-3.4-2.7-6.3-5.1-8.8        c0,0,0,0,0,0c-1.8-2-4-3.3-6.4-4.1c-2.4-1.3-5-1.8-7.7-1.7c-1.8,0.2-3.5,0.5-5.3,0.7c-3.4,1-6.3,2.7-8.8,5.1        c-1.4,1.5-3,3.3-3.9,5.3c-1.5,2.3-2.3,4.8-2.4,7.4c-0.6,2.7-0.5,5.3,0.4,8c0.6,2.6,1.8,4.9,3.6,6.8c1.4,2.2,3.3,3.9,5.6,5.2        c1.6,0.7,3.2,1.3,4.8,2c3.5,1,7.1,1,10.6,0c1.6-0.7,3.2-1.3,4.8-2C447.2,698.6,449.6,696.2,451.4,693.2L451.4,693.2z"/></g></g></g></g></g><g><g><path d="M778.3,155.5c0,47.8,0,95.7,0,143.5c0,6.7,0,13.5,0,20.2c11.4-4.7,22.8-9.4,34.1-14.1     c-0.2-0.2-0.3-0.3-0.5-0.5c-7.6-7.6-20.6-7.7-28.3,0c-29.1,29.1-58.1,58.1-87.2,87.2c-21.4,21.4-42.8,42.8-64.1,64.1     c-23.8,23.8-47.7,47.7-71.5,71.5c-31.6,31.6-63.3,63.3-94.9,94.9c-13.6,13.6-27.2,27.2-40.9,40.9c-1.3,1.3-2.6,2.5-3.8,3.8     c-0.2,0.2-0.4,0.4-0.6,0.6c-2.6,2.9-4.9,6.3-5.9,10.1c-0.2,1.8-0.5,3.5-0.7,5.3c0.6-4.5,0.7-5.7,0.2-3.7c-0.5,1.4-0.7,3-0.9,4.4     c-3.6,21.7-3.3,44.2-3.4,66.2c0,5,0,10.1,0,15.1c0.1,10.8,9.1,20,20,20c17.4,0.1,34.7-0.2,52.1-1c10.7-0.5,22.1-0.8,32.5-3.5     c5.3-1.4,9.7-4,13.5-7.7c17-16.4,33.4-33.4,50-50c31-31,62-62,93-93c30.9-30.9,61.8-61.8,92.7-92.7     c15.9-15.9,32.6-31.4,47.9-47.9c0.2-0.2,0.5-0.5,0.7-0.7c-11.4-4.7-22.8-9.4-34.1-14.1c0,30,0,60.1,0,90.1     c0,58.7,0,117.5,0,176.2c0,41,0,82,0,123c0,2.9,0.1,5.8-0.1,8.7c0,0.4,0,4-0.3,4.1c0.1-0.9,0.2-1.7,0.4-2.6     c-0.1,0.9-0.3,1.8-0.5,2.7c-0.4,2.2-1,4.4-1.6,6.5c-0.4,1.3-0.9,2.5-1.3,3.8c-1.4,4.4,2.1-4,0,0.1c-1.2,2.3-2.3,4.7-3.7,6.9     c-0.7,1.1-1.5,2.2-2.2,3.3c-2.5,3.8,3-3.3,0,0.1c-1.5,1.6-2.8,3.2-4.4,4.8c-0.9,0.9-1.9,1.8-2.9,2.6c-0.3,0.3-0.7,0.6-1,0.8     c-1.7,1.3-1.3,1.1,1-0.7c0.1,0.7-6,3.9-6.5,4.3c-1.1,0.6-2.3,1.3-3.5,1.8c-0.4,0.2-0.8,0.4-1.2,0.6c-2,0.9-1.6,0.7,1.2-0.5     c0,0.6-5.6,1.9-6.3,2.1c-0.9,0.3-7.3,2.3-7.9,1.7c-0.1-0.1,5.3-0.4,1.2-0.2c-1.8,0.1-3.7,0.2-5.5,0.2c-0.4,0-0.8,0-1.2,0     c-3,0-5.9,0-8.9,0c-34.8,0-69.7,0-104.5,0c-56.7,0-113.3,0-170,0c-58.4,0-116.7,0-175.1,0c-40,0-79.9,0-119.9,0     c-6.8,0-13.6,0.1-20.4,0c-1,0-2,0-3-0.1c-0.4,0-4,0-4.1-0.3c0.9,0.1,1.7,0.2,2.6,0.4c-0.9-0.1-1.8-0.3-2.7-0.5     c-2.6-0.5-5.2-1.2-7.8-2c-0.3-0.1-3.7-1-3.7-1.3c0.8,0.3,1.6,0.7,2.3,1c-0.8-0.4-1.6-0.7-2.4-1.1c-2-1-3.9-2-5.7-3.2     c-1.1-0.7-2.2-1.5-3.3-2.2c-3.8-2.5,3.3,3-0.1,0c-1.9-1.7-3.9-3.4-5.7-5.3c-0.9-0.9-1.7-1.9-2.6-2.9c-3-3.4,2.4,3.7,0-0.1     c-1.2-1.8-2.4-3.6-3.5-5.5c-0.6-1.1-1.3-2.3-1.8-3.5c-0.2-0.4-0.4-0.8-0.6-1.2c-0.9-2-0.7-1.6,0.5,1.2c-0.7-0.1-2.3-7-2.5-7.6     c-0.3-1.3-0.6-2.6-0.9-3.9c-0.1-0.4-0.2-0.9-0.2-1.3c-0.3-2.2-0.3-1.8,0.2,1.3c-0.6-0.2-0.4-6.2-0.4-6.9c0-0.1,0-0.2,0-0.3     c-0.2-20.7,0-41.4,0-62.1c0-47.2,0-94.4,0-141.7c0-59.5,0-119,0-178.4c0-57.5,0-115,0-172.5c0-41.3,0-82.5,0-123.8     c0-10.1,0-20.2,0-30.4c0-1.6,0-3.2,0-4.8c0-0.7-0.2-6.8,0.4-7c0.1,0-0.9,5.2-0.2,1.3c0.3-1.3,0.5-2.6,0.8-4     c0.6-2.6,1.5-5.1,2.3-7.6c1.4-4.4-2.1,4,0-0.1c0.6-1.2,1.1-2.4,1.8-3.5c1-1.9,2.2-3.8,3.4-5.6c0.2-0.4,0.5-0.7,0.7-1.1     c1.3-1.7,1-1.4-0.8,0.9c-0.1-0.3,2.3-2.7,2.5-3c1.7-1.9,3.6-3.7,5.6-5.4c0.3-0.3,0.7-0.6,1-0.8c1.7-1.3,1.3-1.1-1,0.7     c0-0.3,2.9-2,3.2-2.2c1.8-1.2,3.7-2.3,5.6-3.3c0.4-0.2,3.2-1.9,3.5-1.7c-0.8,0.3-1.6,0.7-2.3,1c0.8-0.3,1.6-0.6,2.5-0.9     c2.5-0.9,5.1-1.6,7.7-2.1c0.4-0.1,3.7-1,4-0.7c-0.9,0.1-1.7,0.2-2.6,0.4c0.9-0.1,1.8-0.2,2.7-0.2c1.4-0.1,2.8-0.1,4.2-0.1     c0.1,0,0.3,0,0.4,0c2.4,0,4.8,0,7.2,0c12.4,0,24.9,0,37.3,0c47.1,0,94.2,0,141.3,0c60.1,0,120.1,0,180.2,0c52.7,0,105.3,0,158,0     c25,0,50-0.1,74.9,0c1.6,0,7.3-0.4,7.5,0.4c0,0.1-5.2-0.9-1.3-0.2c1.3,0.3,2.6,0.5,4,0.8c2.6,0.6,5.1,1.5,7.6,2.3     c3,0.9-1.1-0.5-1.1-0.5c0.3-0.2,3.2,1.5,3.5,1.7c2.3,1.2,4.6,2.5,6.7,4c0.3,0.2,2.1,1.4,2.1,1.5c-0.7-0.5-1.3-1-2-1.5     c0.7,0.5,1.3,1.1,2,1.7c2,1.7,3.8,3.5,5.6,5.4c0.6,0.6,1.1,1.3,1.7,2c3,3.4-2.4-3.7,0,0.1c1.3,2,2.6,4,3.8,6.1     c0.5,1,1,1.9,1.5,2.9c0.2,0.4,0.4,0.8,0.6,1.2c0.9,2,0.7,1.6-0.5-1.2c0.7,0.1,2.1,6.1,2.3,6.9c0.3,0.9,2.1,6.6,1.5,7.2     c-0.1-0.9-0.2-1.7-0.4-2.6c0.1,0.9,0.2,1.8,0.2,2.7C778.3,152.7,778.3,154.1,778.3,155.5c0.1,10.5,9.1,20.5,20,20     c10.7-0.5,20.1-8.8,20-20c-0.5-46.7-38.5-84.6-85.2-85c-7.2-0.1-14.3,0-21.5,0c-41,0-82,0-123,0c-59.6,0-119.2,0-178.7,0     c-56.6,0-113.3,0-169.9,0c-33.2,0-66.5,0-99.7,0c-2.2,0-4.5,0-6.7,0c-20.4,0.2-39.3,7.3-55,20.1c-20.7,16.9-30.2,42.5-30.2,68.7     c0,27.2,0,54.3,0,81.5c0,51.7,0,103.4,0,155.1c0,60.9,0,121.8,0,182.7c0,55.7,0,111.5,0,167.2c0,35.6,0,71.2,0,106.8     c0,5.6-0.1,11.2,0,16.8c0.4,46.6,38.4,84.6,85,85c22.9,0.2,45.8,0,68.8,0c52.2,0,104.3,0,156.5,0c60.8,0,121.6,0,182.4,0     c48.4,0,96.8,0,145.1,0c30.6,0,65.8,4.2,92.6-13.2c22.2-14.4,36-37.3,39-63.5c0.5-4.5,0.5-8.9,0.5-13.4c0-15.2,0-30.4,0-45.6     c0-56.1,0-112.2,0-168.3c0-50.6,0-101.2,0-151.9c0-8.1,0-16.2,0-24.3c0-17.3-21.9-26.4-34.1-14.1c-13.1,13.1-26.1,26.1-39.2,39.2     c-29.3,29.3-58.7,58.7-88,88c-31.8,31.8-63.5,63.5-95.3,95.3c-19.6,19.6-39.1,39.1-58.7,58.7c-1.2,1.2-3.2,2.6-4.1,4.1     c0,0-0.2,0.1-0.2,0.2c0-1.6,6.6-4.2,7.4-4.3c-0.6,0.1-1.3,0.4-1.9,0.6c-1.4,0.4-2.9,0.6-4.4,0.9c-4.4,0.8,5.4-0.6,1.5-0.2     c-1.3,0.1-2.6,0.3-3.9,0.4c-20.8,1.9-41.8,2-62.6,2.1c-1.6,0-3.1,0-4.7,0c6.7,6.7,13.3,13.3,20,20c-0.1-11.6,0-23.2,0.2-34.8     c0.2-9.2,0.5-18.3,1.1-27.5c0.1-2.1,0.3-4.2,0.5-6.3c0.1-1,0.8-6.7,0.3-3c-0.5,3.7,0.3-1.3,0.5-2.2c0.6-2.7,1.5-5.3,1.5-8.2     c-0.9,3.4-1.8,6.7-2.7,10.1c-2.7,4.5-2.6,3-0.7,1.2c1.5-1.5,3-3,4.5-4.5c5.3-5.3,10.6-10.6,16-16c16.3-16.3,32.5-32.5,48.8-48.8     c24.1-24.1,48.2-48.2,72.2-72.2C617,527.9,642,503,666.9,478c18.5-18.5,37.1-37.1,55.6-55.6c29.1-29.1,58.3-58.3,87.4-87.4     c0.7-0.7,1.4-1.4,2.1-2.1c-9.4,0-18.9,0-28.3,0c0.2,0.2,0.3,0.3,0.5,0.5c12.2,12.3,34.1,3.2,34.1-14.1c0-47.8,0-95.7,0-143.5     c0-6.7,0-13.5,0-20.2c0-10.5-9.2-20.5-20-20C787.5,136,778.3,144.3,778.3,155.5z"/></g></g><g><g><g><path d="M208.4,279.5c14.9,0,29.7,0,44.6,0c35.7,0,71.4,0,107.2,0c43.4,0,86.8,0,130.2,0c37.2,0,74.5,0,111.7,0      c18.2,0,36.5,0.5,54.7,0c0.2,0,0.5,0,0.7,0c10.5,0,20.5-9.2,20-20c-0.5-10.8-8.8-20-20-20c-14.9,0-29.7,0-44.6,0      c-35.7,0-71.4,0-107.2,0c-43.4,0-86.8,0-130.2,0c-37.2,0-74.5,0-111.7,0c-18.2,0-36.5-0.5-54.7,0c-0.2,0-0.5,0-0.7,0      c-10.5,0-20.5,9.2-20,20C188.9,270.3,197.2,279.5,208.4,279.5L208.4,279.5z"/></g></g><g><g><path d="M537.6,408.2c-37.2,0-74.3,0-111.5,0c-59.1,0-118.2,0-177.4,0c-13.4,0-26.9,0-40.3,0      c-10.5,0-20.5,9.2-20,20c0.5,10.8,8.8,20,20,20c37.2,0,74.3,0,111.5,0c59.1,0,118.2,0,177.4,0c13.4,0,26.9,0,40.3,0      c10.5,0,20.5-9.2,20-20C557.1,417.3,548.8,408.2,537.6,408.2L537.6,408.2z"/></g></g><g><g><path d="M377.6,576.8c-49.4,0-98.7,0-148.1,0c-7,0-14,0-21,0c-10.5,0-20.5,9.2-20,20c0.5,10.8,8.8,20,20,20      c49.4,0,98.7,0,148.1,0c7,0,14,0,21,0c10.5,0,20.5-9.2,20-20C397.1,586,388.8,576.8,377.6,576.8L377.6,576.8z"/></g></g><g><g><path d="M337.6,745.5c-37.6,0-75.3,0-112.9,0c-5.4,0-10.8,0-16.2,0c-10.5,0-20.5,9.2-20,20      c0.5,10.8,8.8,20,20,20c37.6,0,75.3,0,112.9,0c5.4,0,10.8,0,16.2,0c10.5,0,20.5-9.2,20-20C357.1,754.7,348.8,745.5,337.6,745.5      L337.6,745.5z"/></g></g></g></g></svg>
